<svg version="1.1" id="Layer_1" xmlns="http://www.w3.org/2000/svg" xmlns:xlink="http://www.w3.org/1999/xlink" x="0px" y="0px"
	 width="100%" viewBox="0 0 1024 1024" enable-background="new 0 0 1024 1024" xml:space="preserve">
<path fill="#FFFFFF" opacity="1.000000" stroke="none" 
	d="
M604.000000,1025.000000 
	C404.166656,1025.000000 204.833328,1024.987793 5.500050,1025.093628 
	C1.750750,1025.095581 0.905801,1024.249146 0.906913,1020.500000 
	C1.007246,682.166687 1.007246,343.833344 0.906913,5.500028 
	C0.905801,1.750903 1.750902,0.905800 5.500028,0.906912 
	C343.833344,1.007255 682.166687,1.007255 1020.500000,0.906912 
	C1024.249146,0.905800 1025.094360,1.750902 1025.093262,5.500027 
	C1024.992920,343.833344 1024.992798,682.166687 1025.093140,1020.500000 
	C1025.094238,1024.249146 1024.249390,1025.097168 1020.499939,1025.094116 
	C881.833313,1024.982422 743.166687,1025.000000 604.000000,1025.000000 
z"/>
<path fill="#171515" opacity="1.000000" stroke="none" 
	d="
M106.190086,663.757996 
	C101.392387,648.882263 96.489914,634.451721 92.600197,619.704956 
	C81.209854,576.521667 77.060326,532.624329 80.414627,488.125946 
	C81.987106,467.265411 85.221909,446.601044 89.766838,426.109955 
	C99.450157,382.452240 115.967903,341.647064 138.625458,303.141602 
	C160.735291,265.566925 187.177673,231.436768 218.635941,201.318161 
	C240.735916,180.159286 265.280334,162.025070 291.419830,146.127197 
	C320.020477,128.732498 350.160980,114.710609 381.940948,103.978333 
	C402.889801,96.903786 424.213135,91.364891 445.870300,87.633438 
	C480.203857,81.717888 514.840576,79.528458 549.758850,82.375420 
	C565.009399,83.618828 580.258911,84.899887 595.301147,87.414032 
	C613.066406,90.383301 630.570923,94.747330 647.891113,99.899834 
	C679.736938,109.373543 710.014038,122.479309 738.657043,139.125198 
	C774.083862,159.713593 806.584351,184.251907 835.286682,213.680267 
	C863.376160,242.480255 887.072876,274.517426 906.664185,309.603546 
	C921.611267,336.372253 933.658081,364.423431 942.728394,393.711487 
	C949.214355,414.654480 954.303772,435.951324 957.392090,457.675812 
	C960.674072,480.762177 962.623901,503.971039 961.898804,527.302917 
	C961.247803,548.249451 958.734680,569.006653 955.184692,589.686401 
	C949.725159,621.489807 940.314026,652.124573 928.454529,682.001587 
	C920.096863,703.056824 909.467590,723.023926 897.875122,742.552795 
	C881.614929,769.945190 862.591125,795.091431 840.741638,818.207031 
	C817.547791,842.745056 791.683594,864.020691 763.667053,882.824280 
	C744.652954,895.585876 724.595764,906.469971 704.032593,916.351257 
	C686.218079,924.911865 667.489319,931.323669 648.668274,937.444336 
	C634.459595,942.065125 620.006775,945.744019 605.404846,948.472961 
	C582.723328,952.712036 559.891724,956.357239 536.667297,956.112732 
	C517.024902,955.905945 497.369873,956.861816 477.758698,954.673889 
	C454.115356,952.036133 430.833801,947.539673 407.903534,941.329529 
	C385.374969,935.228210 363.489594,927.220581 342.231476,917.564636 
	C313.724915,904.616211 286.575836,889.386963 261.292603,870.766357 
	C242.964554,857.268066 225.373886,842.907593 209.437912,826.751648 
	C181.184738,798.108459 156.905823,766.359314 137.136749,731.177002 
	C125.030067,709.631226 115.015579,687.199524 106.190086,663.757996 
z"/>
<path fill="#FCFCFC" opacity="1.000000" stroke="none" 
	d="
M149.208344,509.016998 
	C149.877533,488.799042 152.017044,469.311432 156.030472,449.917236 
	C162.036423,420.894379 171.356964,393.070435 183.811295,366.272217 
	C195.572449,340.965576 209.975571,317.188782 227.003220,295.075134 
	C241.231995,276.596405 257.431488,259.809479 274.876465,244.456787 
	C305.281921,217.698044 339.227081,196.366058 376.605042,180.385803 
	C393.345062,173.228912 410.333435,166.911194 427.874023,162.428650 
	C443.456970,158.446411 459.202881,155.065674 475.289825,152.972076 
	C497.027832,150.143066 518.750854,149.887390 540.480530,150.712845 
	C555.284485,151.275208 570.068787,152.903641 584.725769,155.962540 
	C602.432617,159.657974 620.119751,163.297409 637.221802,169.207596 
	C658.012329,176.392441 678.090088,185.174469 697.475037,195.706467 
	C719.166931,207.491837 739.395874,221.399261 758.303650,237.062302 
	C772.470154,248.797775 785.836426,261.561554 797.823425,275.693542 
	C806.158691,285.520386 814.604309,295.230743 822.134583,305.701111 
	C839.320557,329.597107 853.670166,355.025543 864.658691,382.395020 
	C869.999146,395.696838 874.867310,409.134949 878.825623,422.880463 
	C882.274109,434.855347 885.165894,446.960632 887.485840,459.256500 
	C891.811829,482.184021 893.589722,505.242798 892.763489,528.470825 
	C892.093262,547.315002 889.674133,565.965576 886.175049,584.574341 
	C881.295471,610.524109 873.618164,635.551453 863.819153,659.921509 
	C856.256775,678.729126 846.681519,696.623657 835.692566,713.707764 
	C825.303284,729.859619 814.365051,745.651184 801.477051,759.906189 
	C790.575806,771.963623 779.175110,783.539917 766.827148,794.228027 
	C754.413696,804.972778 741.535950,814.990906 727.977051,824.217163 
	C708.735046,837.310730 688.444641,848.449097 667.151428,857.811829 
	C645.890991,867.160339 623.921021,874.437073 601.272034,879.422119 
	C570.008728,886.303284 538.309021,889.585693 506.294525,887.913269 
	C487.149200,886.913208 467.984680,885.173584 449.205383,881.127808 
	C427.532227,876.458740 406.134399,870.690857 385.558105,862.214050 
	C363.959015,853.315857 343.000153,843.123596 323.218964,830.692444 
	C306.582123,820.237244 290.611786,808.825073 275.757843,795.879761 
	C255.177460,777.943848 236.289368,758.436401 220.318161,736.267395 
	C200.903519,709.318604 185.296310,680.320557 173.328339,649.266541 
	C165.485580,628.916382 159.730835,608.023621 155.260742,586.787659 
	C152.744904,574.835754 151.584198,562.598328 150.333130,550.384216 
	C148.932846,536.713379 149.741608,523.124573 149.208344,509.016998 
z"/>
<path fill="#151314" opacity="1.000000" stroke="none" 
	d="
M768.580444,731.589172 
	C750.791809,751.654419 730.917542,768.768860 709.240051,783.931030 
	C687.564514,799.091797 664.531006,811.501465 640.059570,821.587463 
	C623.286011,828.500916 605.939880,833.314819 588.481506,837.650391 
	C578.154419,840.215088 567.500793,841.922852 556.751892,842.757324 
	C544.526917,843.706543 532.348206,845.591553 520.061218,845.160645 
	C489.593231,844.092346 459.632111,840.313660 430.230804,831.384583 
	C407.797546,824.571655 386.478180,815.468384 365.886200,804.647888 
	C343.695801,792.987427 323.210999,778.664551 304.135986,762.280212 
	C289.981964,750.122742 276.772064,737.030579 264.964447,722.696716 
	C246.224182,699.946960 231.066452,674.945862 219.391571,647.730713 
	C211.118927,628.446350 205.006790,608.548401 199.934906,588.318481 
	C197.467392,578.476440 196.019608,568.342346 194.984451,558.147888 
	C193.338272,541.936096 191.692368,525.702820 192.587418,509.457520 
	C193.539490,492.177277 195.462341,474.982971 199.010162,457.921753 
	C204.727097,430.429504 214.014084,404.216492 225.909363,378.953888 
	C233.188248,363.495331 242.448914,349.036469 252.085449,334.881805 
	C263.793793,317.683899 277.649628,302.229919 292.400696,287.734711 
	C306.662994,273.719849 322.111603,260.900177 338.962677,249.943405 
	C363.044800,234.284912 388.351074,221.125549 415.587555,211.748779 
	C432.059814,206.077850 448.780853,201.334808 465.870483,198.116638 
	C491.477692,193.294510 517.462402,192.252319 543.351135,193.907990 
	C562.353210,195.123245 581.225159,198.094772 599.794067,203.263733 
	C619.471985,208.741455 638.788513,214.922546 657.187378,223.752930 
	C684.249084,236.740936 709.322388,252.791183 732.260803,272.266174 
	C743.701965,281.979889 754.460815,292.399597 764.405090,303.494019 
	C777.504761,318.108795 789.004456,334.063782 799.504272,350.733673 
	C810.727478,368.552094 820.134155,387.287262 827.629395,406.866974 
	C833.253052,421.557709 837.773987,436.687897 841.177795,452.142700 
	C845.461914,471.594727 848.458069,491.158661 849.096741,511.077820 
	C849.534546,524.731262 848.359436,538.278320 847.159729,551.863892 
	C845.873840,566.424988 842.803284,580.654724 839.445435,594.755310 
	C833.975830,617.723572 826.007507,639.874756 815.512512,661.148865 
	C802.956787,686.600159 787.315613,709.888000 768.580444,731.589172 
z"/>
<path fill="#FDFDFD" opacity="1.000000" stroke="none" 
	d="
M606.859985,648.084900 
	C590.744995,656.721497 575.586975,644.638367 574.391602,632.519714 
	C573.954468,628.088562 575.091125,623.927856 576.817261,619.978516 
	C588.812012,592.534546 599.852234,564.698242 611.181580,536.979248 
	C621.771301,511.069550 632.814148,485.345459 643.485779,459.468842 
	C650.588318,442.246094 657.332092,424.875641 664.355042,407.619568 
	C666.919617,401.318329 670.667969,395.887177 677.674316,393.904846 
	C684.980896,391.837524 692.783752,396.268341 696.924072,405.396759 
	C700.795898,413.933289 703.925964,422.803955 707.470520,431.491638 
	C715.845154,452.017914 724.326477,472.500824 732.663574,493.042297 
	C742.168762,516.461853 751.420959,539.985046 761.054626,563.351318 
	C768.263184,580.835327 775.946106,598.123291 783.316528,615.541382 
	C785.044189,619.624207 787.117920,623.775696 787.712891,628.078125 
	C788.967346,637.149963 781.914062,646.386108 772.849670,649.652954 
	C762.775269,653.283875 748.571899,647.422729 743.043457,636.163818 
	C737.676758,625.234375 733.306824,613.894775 728.327637,602.812439 
	C726.106750,597.869385 722.793335,596.262817 717.814758,596.379456 
	C702.003479,596.749817 686.190369,597.057739 670.376465,597.295166 
	C661.887207,597.422607 653.394958,597.383789 644.904175,597.370178 
	C636.057312,597.356018 634.203918,598.593872 631.165771,606.881042 
	C627.943970,615.669373 623.973633,624.137207 620.285828,632.728333 
	C617.479065,639.266907 612.447937,643.666199 606.859985,648.084900 
z"/>
<path fill="#FCFCFC" opacity="1.000000" stroke="none" 
	d="
M440.040649,534.131348 
	C431.030731,555.129639 422.153137,575.769409 413.226868,596.388123 
	C407.228516,610.243530 401.513275,624.237915 394.991028,637.843994 
	C391.171997,645.810974 384.388245,650.588074 374.996582,649.646057 
	C366.832489,648.827148 360.881409,644.414917 357.587189,636.885864 
	C342.247437,601.826721 327.028107,566.714844 311.706787,531.647644 
	C301.262054,507.741760 290.749695,483.865265 280.209808,460.001190 
	C274.509705,447.095245 268.589569,434.285889 262.954315,421.352081 
	C258.761139,411.728149 262.600647,400.952057 271.842163,395.572174 
	C280.275146,390.662964 293.870972,393.239563 299.936829,400.801575 
	C305.184387,407.343475 308.037048,415.130341 311.381409,422.642670 
	C318.877289,439.480377 326.179321,456.404205 333.597595,473.276550 
	C342.581451,493.709869 351.617798,514.120178 360.604034,534.552429 
	C365.504608,545.694946 370.345581,556.863586 375.223328,568.016174 
	C375.628387,568.942322 376.189789,569.752502 377.563324,570.117310 
	C386.390564,549.527466 395.143250,528.878296 404.090210,508.313629 
	C411.755280,490.695343 419.639557,473.172394 427.433136,455.610077 
	C434.876404,438.837189 442.172546,421.996460 449.840424,405.326752 
	C453.723206,396.885712 461.073090,392.643097 470.102051,392.749298 
	C479.388885,392.858521 486.287537,397.924896 490.438629,406.226471 
	C493.085510,411.519836 491.783051,416.969757 489.563568,422.034454 
	C479.747559,444.434113 469.698792,466.731842 459.886078,489.132935 
	C453.359253,504.032898 447.334198,519.153503 440.040649,534.131348 
z"/>
<path fill="#FCFCFC" opacity="1.000000" stroke="none" 
	d="
M504.764374,596.000366 
	C504.820770,567.521362 504.915314,539.542297 504.941254,511.563202 
	C504.959381,492.004791 524.704590,482.501099 538.499573,491.248596 
	C544.975525,495.355103 548.990173,501.527985 549.033386,509.282135 
	C549.231140,544.757507 549.213501,580.234619 549.107605,615.710571 
	C549.088928,621.968384 549.907410,628.222839 548.123352,634.522400 
	C545.645447,643.272400 539.590088,647.922546 531.388428,649.469543 
	C521.952148,651.249512 514.217407,647.607788 508.683746,639.583374 
	C505.316803,634.700928 504.764221,629.116089 504.696411,623.481079 
	C504.588196,614.489075 504.734528,605.494080 504.764374,596.000366 
z"/>
<path fill="#FCFCFC" opacity="1.000000" stroke="none" 
	d="
M527.618164,267.044800 
	C539.757324,269.134796 548.738037,275.591614 554.061707,285.833038 
	C564.594116,306.094940 555.053101,329.132416 532.980835,335.379517 
	C509.911011,341.909027 490.041779,327.291626 487.693939,304.309570 
	C486.045593,288.174805 497.412415,273.435852 513.877075,268.355774 
	C518.269104,267.000610 522.685303,266.939362 527.618164,267.044800 
z"/>
<path fill="#FBFBFB" opacity="1.000000" stroke="none" 
	d="
M503.286469,715.856689 
	C515.234497,715.878845 526.721497,715.676636 538.193359,716.004517 
	C547.695923,716.276123 555.525024,719.376892 561.204102,728.141602 
	C567.568176,737.963440 563.551636,753.890259 554.259338,759.522583 
	C549.020325,762.698120 543.480347,764.067200 537.284180,764.119629 
	C527.665894,764.201050 518.063049,763.612244 508.411530,764.324463 
	C496.758972,765.184448 487.570465,760.430969 481.640900,749.935547 
	C478.042603,743.566589 478.423279,731.148315 483.377808,726.440125 
	C488.824799,721.263977 494.479675,715.950867 503.286469,715.856689 
z"/>
<path fill="#FAFAFA" opacity="1.000000" stroke="none" 
	d="
M550.736328,419.859070 
	C551.349670,431.016937 541.068420,443.190735 526.975525,443.350464 
	C518.237183,443.449493 506.454437,436.354248 504.207062,423.491455 
	C501.143616,405.958130 514.684631,391.717041 532.829529,395.205597 
	C540.749084,396.728210 552.294189,406.714600 550.736328,419.859070 
z"/>
<path fill="#171617" opacity="1.000000" stroke="none" 
	d="
M662.310364,553.387207 
	C653.640808,553.396729 653.645447,553.398499 656.879822,544.865234 
	C664.158447,525.662048 672.156677,506.758087 680.343933,487.968872 
	C682.070496,488.269714 682.440918,489.444702 682.980652,490.746185 
	C691.199646,510.564026 699.397461,530.392090 707.863403,550.104736 
	C709.432190,553.757690 707.903748,553.580200 705.251709,553.559814 
	C691.091370,553.450745 676.930359,553.433228 662.310364,553.387207 
z"/>
</svg>